<?xml version="1.0" encoding="UTF-8" standalone="no"?>
<svg
   width="35"
   height="35.000008"
   viewBox="0 0 35 35.000008"
   version="1.1"
   id="svg1"
   sodipodi:docname="social-icons-master.svg"
   xml:space="preserve"
   inkscape:version="1.3.2 (091e20e, 2023-11-25, custom)"
   inkscape:export-filename="..\social_icons\discord.svg"
   inkscape:export-xdpi="96"
   inkscape:export-ydpi="96"
   xmlns:inkscape="http://www.inkscape.org/namespaces/inkscape"
   xmlns:sodipodi="http://sodipodi.sourceforge.net/DTD/sodipodi-0.dtd"
   xmlns="http://www.w3.org/2000/svg"
   xmlns:svg="http://www.w3.org/2000/svg"><defs
     id="defs1" /><sodipodi:namedview
     id="namedview1"
     pagecolor="#ffffff"
     bordercolor="#000000"
     borderopacity="0.25"
     inkscape:showpageshadow="2"
     inkscape:pageopacity="0.0"
     inkscape:pagecheckerboard="0"
     inkscape:deskcolor="#d1d1d1"
     showguides="true"
     inkscape:zoom="3.0236181"
     inkscape:cx="35.057338"
     inkscape:cy="111.95197"
     inkscape:window-width="2560"
     inkscape:window-height="1377"
     inkscape:window-x="1912"
     inkscape:window-y="-8"
     inkscape:window-maximized="1"
     inkscape:current-layer="svg1"><sodipodi:guide
       position="-57.246407,-5.0000068"
       orientation="0,-1"
       id="guide2"
       inkscape:locked="false" /><sodipodi:guide
       position="21.81289,17.894113"
       orientation="0,-1"
       id="guide3"
       inkscape:locked="false" /></sodipodi:namedview><g
     style="clip-rule:evenodd;fill:#2a2a2a;fill-opacity:1;fill-rule:evenodd"
     id="g2"
     transform="matrix(0.75585799,0,0,0.75585799,1.1487676,9.5197768)"
     inkscape:export-filename="..\..\..\Meine Ablage\Software_projects\VS_Code\lucacomposto\images\socials\discord.svg"
     inkscape:export-xdpi="96"
     inkscape:export-ydpi="96"
     inkscape:label="Discord"><rect
       style="fill:none;fill-opacity:1;stroke:none;stroke-width:0.6615;stroke-linejoin:round"
       id="rect5"
       width="46.304993"
       height="46.304993"
       x="-1.5198188"
       y="-12.594669" /><path
       id="rect6"
       style="fill:#2a2a2a;fill-opacity:1;stroke:none;stroke-width:1.30772;stroke-linejoin:round"
       d="m 15.926726,-4.516562 c 0,0 -4.915317,-0.1064217 -10.0837515,3.76989696 0,0 -5.16958254,9.36633974 -5.16958254,20.92352904 0,0 3.01493804,5.204414 10.94705104,5.455654 0,0 1.329244,-1.614225 2.406001,-2.978124 -4.5582695,-1.3639 -6.2831885,-4.234767 -6.2831885,-4.234767 l 1.006331,0.607882 0.143032,0.107288 0.137925,0.08173 0.04597,0.02041 0.137923,0.07663 c 0.8973005,0.502478 1.7950335,0.89783 2.6205515,1.220864 1.471567,0.574272 3.231017,1.147891 5.276856,1.542718 2.691894,0.502476 5.851454,0.681793 9.297077,0.03575 1.686921,-0.287149 3.405639,-0.788972 5.200232,-1.542719 1.256218,-0.466593 2.655928,-1.145744 4.127494,-2.114819 0,0 -1.790789,2.94253 -6.492629,4.270519 1.076759,1.363901 2.365135,2.906619 2.365135,2.906619 7.932112,-0.25124 10.98281,-5.455654 10.98281,-5.455654 0,-11.5571891 -5.164474,-20.92352958 -5.164474,-20.92352958 C 32.259053,-4.6229975 27.33863,-4.5165754 27.33863,-4.5165754 l -0.500613,0.5721279 c 6.101626,1.8663788 8.934388,4.56169546 8.934388,4.56169546 -3.732759,-2.04584216 -7.389183,-3.05328406 -10.79891,-3.44808476 -2.584218,-0.2871494 -5.064359,-0.215617 -7.253766,0.071506 l -0.607884,0.071532 c -1.256219,0.1076509 -4.307279,0.5760248 -8.1477135,2.262958 -1.328,0.61015627 -2.119935,1.04209641 -2.119935,1.04209641 0,0 2.979564,-2.83835531 9.4401065,-4.70473421 z M 14.920395,8.8722467 c 2.045837,0 3.698538,1.7950573 3.662639,3.9844693 0,2.189386 -1.616802,3.984441 -3.662639,3.984441 -2.009946,0 -3.657532,-1.795055 -3.657532,-3.984441 0,-2.189412 1.611695,-3.9844693 3.657532,-3.9844693 z m 13.102748,0 c 2.045838,0 3.657529,1.7950573 3.657529,3.9844693 0,2.189386 -1.611691,3.984441 -3.657529,3.984441 -2.009948,0 -3.662641,-1.795055 -3.662641,-3.984441 0,-2.189412 1.616802,-3.9844693 3.662641,-3.9844693 z"
       inkscape:export-filename="..\social_icons\discord.svg"
       inkscape:export-xdpi="106.04559"
       inkscape:export-ydpi="106.04559" /></g></svg>
