<?xml version="1.0" encoding="UTF-8" standalone="no"?>
<svg
   width="35"
   height="35"
   viewBox="0 0 35 35"
   version="1.1"
   id="svg1"
   sodipodi:docname="social-icons-master.svg"
   xml:space="preserve"
   inkscape:version="1.3.2 (091e20e, 2023-11-25, custom)"
   inkscape:export-filename="..\social_icons\discord.svg"
   inkscape:export-xdpi="96"
   inkscape:export-ydpi="96"
   xmlns:inkscape="http://www.inkscape.org/namespaces/inkscape"
   xmlns:sodipodi="http://sodipodi.sourceforge.net/DTD/sodipodi-0.dtd"
   xmlns="http://www.w3.org/2000/svg"
   xmlns:svg="http://www.w3.org/2000/svg"><defs
     id="defs1" /><sodipodi:namedview
     id="namedview1"
     pagecolor="#ffffff"
     bordercolor="#000000"
     borderopacity="0.25"
     inkscape:showpageshadow="2"
     inkscape:pageopacity="0.0"
     inkscape:pagecheckerboard="0"
     inkscape:deskcolor="#d1d1d1"
     showguides="true"
     inkscape:zoom="3.0236181"
     inkscape:cx="35.057338"
     inkscape:cy="111.95197"
     inkscape:window-width="2560"
     inkscape:window-height="1377"
     inkscape:window-x="1912"
     inkscape:window-y="-8"
     inkscape:window-maximized="1"
     inkscape:current-layer="svg1"><sodipodi:guide
       position="-196.52485,-5.0000068"
       orientation="0,-1"
       id="guide2"
       inkscape:locked="false" /><sodipodi:guide
       position="-117.46555,17.894113"
       orientation="0,-1"
       id="guide3"
       inkscape:locked="false" /></sodipodi:namedview><g
     inkscape:groupmode="layer"
     id="layer1"
     inkscape:label="Linkedin"
     inkscape:export-filename="..\..\..\Meine Ablage\Software_projects\VS_Code\lucacomposto\images\socials\linkedin.svg"
     inkscape:export-xdpi="96"
     inkscape:export-ydpi="96"
     transform="translate(-126.29634,-74.248794)"><rect
       style="fill:#00ff00;fill-opacity:1;stroke:none;stroke-width:0.5;stroke-linejoin:round"
       id="rect3"
       width="35"
       height="35"
       x="-97.234505"
       y="74.248795" /><path
       d="m -86.754505,82.748789 c 0,1.381 -1.11,2.5 -2.48,2.5 -1.37,0 -2.48,-1.119 -2.48,-2.5 0,-1.38 1.11,-2.5 2.48,-2.5 1.37,0 2.48,1.12 2.48,2.5 z m 0.02,4.5 h -5 V 103.2488 h 5 z m 7.982,0 h -4.968 V 103.2488 h 4.969 v -8.399011 c 0,-4.67 6.029,-5.052 6.029,0 v 8.399011 h 4.988 V 93.117789 c 0,-7.88 -8.922,-7.593 -11.018,-3.714 z"
       id="path1"
       style="fill:#2a2a2a;fill-opacity:1;stroke:none"
       inkscape:export-filename="..\..\..\Meine Ablage\Software_projects\VS_Code\lucacomposto\images\socials\linkedin.svg"
       inkscape:export-xdpi="96"
       inkscape:export-ydpi="96" /></g><g
     style="fill:#2a2a2a;fill-opacity:1;stroke:none"
     id="g1"
     transform="matrix(0.01304664,0,0,0.01304664,-177.62688,5.3856668)"
     inkscape:export-filename="..\..\..\Meine Ablage\Software_projects\VS_Code\lucacomposto\images\socials\x.svg"
     inkscape:export-xdpi="96"
     inkscape:export-ydpi="96"
     inkscape:label="X"><rect
       style="fill:#00ff00;fill-opacity:1;stroke:none;stroke-width:0.5;stroke-linejoin:round"
       id="rect4"
       width="35"
       height="35"
       x="-55.314526"
       y="79.788513"
       transform="matrix(76.648087,0,0,76.648087,3934.3876,-6528.4378)" /><path
       d="M 1200.0859,793.55793 1842.2558,47.087434 H 1690.0821 L 1132.486,695.23733 687.13562,47.087434 H 173.47673 l 673.45714,980.117366 -673.45714,782.789 h 152.18234 l 588.8359,-684.4684 470.32253,684.4684 h 513.6589 L 1200.0485,793.55793 Z M 991.65127,1035.8398 923.41607,938.24233 380.4925,161.64813 h 233.7432 l 438.1456,626.7363 68.2353,97.5976 569.5373,814.66117 h -233.7432 l -464.75943,-664.766 z"
       fill="#000000"
       id="path1-4"
       clip-path="url(#clipPath2)"
       style="fill:#2a2a2a;fill-opacity:1;stroke:none;stroke-width:1.4375"
       sodipodi:insensitive="true" /></g><g
     style="clip-rule:evenodd;fill:#2a2a2a;fill-opacity:1;fill-rule:evenodd"
     id="g2"
     transform="matrix(0.75585799,0,0,0.75585799,-138.12967,9.5197768)"
     inkscape:export-filename="..\social_icons\discord.svg"
     inkscape:export-xdpi="96"
     inkscape:export-ydpi="96"
     inkscape:label="Discord"><rect
       style="fill:#00ff00;fill-opacity:1;stroke:none;stroke-width:0.6615;stroke-linejoin:round"
       id="rect5"
       width="46.304993"
       height="46.304993"
       x="-1.5198188"
       y="-12.594669" /><path
       id="rect6"
       style="fill:#2a2a2a;fill-opacity:1;stroke:none;stroke-width:1.30772;stroke-linejoin:round"
       d="m 15.926726,-4.516562 c 0,0 -4.915317,-0.1064217 -10.0837515,3.76989696 0,0 -5.16958254,9.36633974 -5.16958254,20.92352904 0,0 3.01493804,5.204414 10.94705104,5.455654 0,0 1.329244,-1.614225 2.406001,-2.978124 -4.5582695,-1.3639 -6.2831885,-4.234767 -6.2831885,-4.234767 l 1.006331,0.607882 0.143032,0.107288 0.137925,0.08173 0.04597,0.02041 0.137923,0.07663 c 0.8973005,0.502478 1.7950335,0.89783 2.6205515,1.220864 1.471567,0.574272 3.231017,1.147891 5.276856,1.542718 2.691894,0.502476 5.851454,0.681793 9.297077,0.03575 1.686921,-0.287149 3.405639,-0.788972 5.200232,-1.542719 1.256218,-0.466593 2.655928,-1.145744 4.127494,-2.114819 0,0 -1.790789,2.94253 -6.492629,4.270519 1.076759,1.363901 2.365135,2.906619 2.365135,2.906619 7.932112,-0.25124 10.98281,-5.455654 10.98281,-5.455654 0,-11.5571891 -5.164474,-20.92352958 -5.164474,-20.92352958 C 32.259053,-4.6229975 27.33863,-4.5165754 27.33863,-4.5165754 l -0.500613,0.5721279 c 6.101626,1.8663788 8.934388,4.56169546 8.934388,4.56169546 -3.732759,-2.04584216 -7.389183,-3.05328406 -10.79891,-3.44808476 -2.584218,-0.2871494 -5.064359,-0.215617 -7.253766,0.071506 l -0.607884,0.071532 c -1.256219,0.1076509 -4.307279,0.5760248 -8.1477135,2.262958 -1.328,0.61015627 -2.119935,1.04209641 -2.119935,1.04209641 0,0 2.979564,-2.83835531 9.4401065,-4.70473421 z M 14.920395,8.8722467 c 2.045837,0 3.698538,1.7950573 3.662639,3.9844693 0,2.189386 -1.616802,3.984441 -3.662639,3.984441 -2.009946,0 -3.657532,-1.795055 -3.657532,-3.984441 0,-2.189412 1.611695,-3.9844693 3.657532,-3.9844693 z m 13.102748,0 c 2.045838,0 3.657529,1.7950573 3.657529,3.9844693 0,2.189386 -1.611691,3.984441 -3.657529,3.984441 -2.009948,0 -3.662641,-1.795055 -3.662641,-3.984441 0,-2.189412 1.616802,-3.9844693 3.662641,-3.9844693 z"
       inkscape:export-filename="..\social_icons\discord.svg"
       inkscape:export-xdpi="106.04559"
       inkscape:export-ydpi="106.04559" /></g><g
     inkscape:groupmode="layer"
     id="layer2"
     inkscape:label="Whatsapp"
     inkscape:export-filename="..\..\..\Meine Ablage\Software_projects\VS_Code\lucacomposto\images\socials\whatsapp.svg"
     inkscape:export-xdpi="96"
     inkscape:export-ydpi="96"
     style="display:inline"
     transform="translate(-126.29634,-114.78851)"><rect
       style="display:inline;fill:#00ff00;fill-opacity:1;stroke:none;stroke-width:0.5;stroke-linejoin:round"
       id="rect2"
       width="35"
       height="35"
       x="38.017902"
       y="114.78851" /><path
       d="m 44.072522,143.78852 1.616709,-5.90621 c -0.997626,-1.72883 -1.521834,-3.68863 -1.520876,-5.69825 0.0028,-6.28284 5.115586,-11.39555 11.397464,-11.39555 3.048461,9.6e-4 5.910045,1.18832 8.062463,3.34267 2.151459,2.15433 3.33596,5.01784 3.335001,8.06341 -0.0029,6.2838 -5.115586,11.39652 -11.397464,11.39652 -1.907084,-9.7e-4 -3.786377,-0.47917 -5.451003,-1.38769 z m 6.322128,-3.64837 c 1.606167,0.95353 3.139501,1.5247 5.167336,1.52566 5.221002,0 9.474087,-4.24925 9.476963,-9.47312 0.002,-5.23444 -4.231044,-9.47793 -9.469296,-9.47985 -5.224836,0 -9.475047,4.24926 -9.476964,9.47217 -9.57e-4,2.13229 0.623876,3.72888 1.673251,5.39926 l -0.957375,3.49601 z m 10.912547,-5.23634 c -0.07092,-0.11884 -0.260667,-0.18974 -0.54625,-0.33254 -0.284625,-0.14279 -1.684751,-0.83184 -1.946376,-0.92672 -0.260667,-0.0948 -0.450417,-0.14279 -0.641126,0.14281 -0.189749,0.28462 -0.736,0.92671 -0.901792,1.11645 -0.165791,0.18975 -0.332542,0.2137 -0.617168,0.0709 -0.284625,-0.1428 -1.202708,-0.44274 -2.290418,-1.41355 -0.846207,-0.75515 -1.418333,-1.68761 -1.584125,-1.9732 -0.165791,-0.28462 -0.01725,-0.43891 0.124584,-0.58075 0.128417,-0.12746 0.284626,-0.33255 0.427417,-0.49929 0.144708,-0.16483 0.191667,-0.28366 0.287499,-0.47438 0.09488,-0.18974 0.04791,-0.3565 -0.02396,-0.49928 -0.07186,-0.14184 -0.641125,-1.54388 -0.877834,-2.1141 -0.231917,-0.55486 -0.466709,-0.48012 -0.641126,-0.48874 l -0.54625,-0.009 c -0.18975,0 -0.498333,0.0709 -0.759,0.35651 -0.260666,0.28558 -0.996667,0.97366 -0.996667,2.3757 0,1.40204 1.020626,2.75616 1.162459,2.94593 0.142792,0.18974 2.00771,3.06666 4.864502,4.30003 0.679458,0.29325 1.210376,0.46863 1.623418,0.59992 0.682333,0.21658 1.303334,0.18591 1.794001,0.11309 0.547208,-0.0815 1.684751,-0.68905 1.922418,-1.35414 0.237666,-0.66604 0.237666,-1.23624 0.165791,-1.35508 z"
       id="path1-40"
       style="stroke-width:0.958334" /></g><g
     inkscape:groupmode="layer"
     id="layer3"
     inkscape:label="Mail"
     transform="translate(-126.29634,-114.78851)"><rect
       style="fill:#00ff00;fill-opacity:1;stroke:none;stroke-width:0.5;stroke-linejoin:round"
       id="rect7"
       width="35"
       height="35"
       x="82.15712"
       y="114.78851"
       inkscape:export-filename="mail.svg"
       inkscape:export-xdpi="96"
       inkscape:export-ydpi="96" /><path
       d="m 99.657118,122.70518 c 5.284262,0 9.583342,4.29908 9.583342,9.58334 0,5.28425 -4.29908,9.58333 -9.583342,9.58333 -5.284252,0 -9.583337,-4.29908 -9.583337,-9.58333 0,-5.28426 4.299085,-9.58334 9.583337,-9.58334 z m 0,-1.91667 c -6.350878,0 -11.500005,5.14913 -11.500005,11.50001 0,6.35087 5.149127,11.5 11.500005,11.5 6.350882,0 11.500012,-5.14913 11.500012,-11.5 0,-6.35088 -5.14913,-11.50001 -11.500012,-11.50001 z m 0,12.02709 -5.742336,-4.37959 H 105.3985 Z m 0,1.23433 -5.750002,-4.43612 v 6.48887 h 11.500014 v -6.48887 z"
       id="path1-3"
       style="stroke-width:0.958334" /></g><g
     inkscape:groupmode="layer"
     id="layer4"
     inkscape:label="Github"
     inkscape:export-filename="..\social_icons\github.svg"
     inkscape:export-xdpi="96"
     inkscape:export-ydpi="96"
     transform="translate(-126.29634,-114.78851)"><rect
       style="fill:none;fill-opacity:1;stroke:none;stroke-width:0.5;stroke-linejoin:round"
       id="rect8"
       width="35"
       height="35"
       x="126.29634"
       y="114.78851"
       inkscape:export-filename="mail.svg"
       inkscape:export-xdpi="96"
       inkscape:export-ydpi="96" /><path
       d="m 143.79633,120.78851 c -6.45032,0 -11.68007,5.22976 -11.68007,11.68008 0,5.47308 3.76877,10.05264 8.8496,11.31993 -0.0545,-0.15768 -0.0895,-0.34067 -0.0895,-0.56746 v -1.99632 c -0.47402,0 -1.26827,0 -1.4678,0 -0.79912,0 -1.50965,-0.34358 -1.85422,-0.9821 -0.38252,-0.70956 -0.44871,-1.79483 -1.39674,-2.45865 -0.28129,-0.22095 -0.0672,-0.47305 0.25697,-0.43898 0.5986,0.16936 1.095,0.58011 1.56221,1.18942 0.46525,0.61029 0.68425,0.7485 1.55344,0.7485 0.42146,0 1.05219,-0.0244 1.64592,-0.11777 0.31926,-0.8108 0.87114,-1.55735 1.54566,-1.9097 -3.88946,-0.40003 -5.74562,-2.33504 -5.74562,-4.96208 0,-1.13102 0.4818,-2.22506 1.30038,-3.14681 -0.26864,-0.91494 -0.60639,-2.78083 0.10317,-3.49137 1.75007,0 2.80809,1.13492 3.06213,1.44152 0.87211,-0.29881 1.82988,-0.46818 2.83632,-0.46818 1.00838,0 1.97003,0.16937 2.84409,0.47013 0.25112,-0.30465 1.31012,-1.44347 3.06407,-1.44347 0.71249,0.71151 0.37085,2.5852 0.0993,3.49818 0.81371,0.91982 1.29259,2.01092 1.29259,3.14 0,2.6251 -1.85324,4.55913 -5.73687,4.96111 1.06874,0.55773 1.84838,2.1248 1.84838,3.30546 v 2.66111 c 0,0.10123 -0.0224,0.17423 -0.0341,0.26086 4.55134,-1.5953 7.82078,-5.91693 7.82078,-11.01333 0,-6.45032 -5.22976,-11.68008 -11.68008,-11.68008 z"
       id="path1-2"
       style="stroke-width:0.97334" /></g></svg>
