<?xml version="1.0" encoding="UTF-8" standalone="no"?>
<svg
   width="35"
   height="35"
   viewBox="0 0 35 35"
   version="1.1"
   id="svg1"
   sodipodi:docname="iconmonstr-linkedin-1.svg"
   xml:space="preserve"
   xmlns:inkscape="http://www.inkscape.org/namespaces/inkscape"
   xmlns:sodipodi="http://sodipodi.sourceforge.net/DTD/sodipodi-0.dtd"
   xmlns="http://www.w3.org/2000/svg"
   xmlns:svg="http://www.w3.org/2000/svg"><defs
     id="defs1" /><sodipodi:namedview
     id="namedview1"
     pagecolor="#ffffff"
     bordercolor="#000000"
     borderopacity="0.25"
     inkscape:showpageshadow="2"
     inkscape:pageopacity="0.0"
     inkscape:pagecheckerboard="0"
     inkscape:deskcolor="#d1d1d1"
     showguides="true"><sodipodi:guide
       position="27.006,-5.0000068"
       orientation="0,-1"
       id="guide2"
       inkscape:locked="false" /><sodipodi:guide
       position="7.3593527,53.614335"
       orientation="0,-1"
       id="guide3"
       inkscape:locked="false" /></sodipodi:namedview><g
     inkscape:groupmode="layer"
     id="layer1"
     inkscape:label="Linkedin"
     inkscape:export-filename="..\..\..\Meine Ablage\Software_projects\VS_Code\lucacomposto\images\socials\linkedin.svg"
     inkscape:export-xdpi="96"
     inkscape:export-ydpi="96"
     transform="translate(97.234505,-74.248794)"><rect
       style="fill:none;fill-opacity:1;stroke:none;stroke-width:0.5;stroke-linejoin:round"
       id="rect3"
       width="35"
       height="35"
       x="-97.234505"
       y="74.248795" /><path
       d="m -86.754505,82.748789 c 0,1.381 -1.11,2.5 -2.48,2.5 -1.37,0 -2.48,-1.119 -2.48,-2.5 0,-1.38 1.11,-2.5 2.48,-2.5 1.37,0 2.48,1.12 2.48,2.5 z m 0.02,4.5 h -5 V 103.2488 h 5 z m 7.982,0 h -4.968 V 103.2488 h 4.969 v -8.399011 c 0,-4.67 6.029,-5.052 6.029,0 v 8.399011 h 4.988 V 93.117789 c 0,-7.88 -8.922,-7.593 -11.018,-3.714 z"
       id="path1"
       style="fill:#2a2a2a;fill-opacity:1;stroke:none"
       inkscape:export-filename="..\..\..\Meine Ablage\Software_projects\VS_Code\lucacomposto\images\socials\linkedin.svg"
       inkscape:export-xdpi="96"
       inkscape:export-ydpi="96" /></g></svg>
