<?xml version="1.0" encoding="UTF-8" standalone="no"?>
<svg
   width="35"
   height="35"
   viewBox="0 0 35 35"
   version="1.1"
   id="svg1"
   sodipodi:docname="social-icons-master.svg"
   xml:space="preserve"
   inkscape:version="1.3.2 (091e20e, 2023-11-25, custom)"
   xmlns:inkscape="http://www.inkscape.org/namespaces/inkscape"
   xmlns:sodipodi="http://sodipodi.sourceforge.net/DTD/sodipodi-0.dtd"
   xmlns="http://www.w3.org/2000/svg"
   xmlns:svg="http://www.w3.org/2000/svg"><defs
     id="defs1" /><sodipodi:namedview
     id="namedview1"
     pagecolor="#ffffff"
     bordercolor="#000000"
     borderopacity="0.25"
     inkscape:showpageshadow="2"
     inkscape:pageopacity="0.0"
     inkscape:pagecheckerboard="0"
     inkscape:deskcolor="#d1d1d1"
     showguides="true"
     inkscape:zoom="8.5520833"
     inkscape:cx="54.723508"
     inkscape:cy="127.74665"
     inkscape:window-width="2560"
     inkscape:window-height="1377"
     inkscape:window-x="1912"
     inkscape:window-y="-8"
     inkscape:window-maximized="1"
     inkscape:current-layer="layer3"><sodipodi:guide
       position="-152.38562,-5.0000068"
       orientation="0,-1"
       id="guide2"
       inkscape:locked="false" /><sodipodi:guide
       position="-172.03227,53.614335"
       orientation="0,-1"
       id="guide3"
       inkscape:locked="false" /></sodipodi:namedview><g
     inkscape:groupmode="layer"
     id="layer3"
     inkscape:label="Mail"
     transform="translate(-82.15712,-114.78851)"><path
       d="m 99.657118,122.70518 c 5.284262,0 9.583342,4.29908 9.583342,9.58334 0,5.28425 -4.29908,9.58333 -9.583342,9.58333 -5.284252,0 -9.583337,-4.29908 -9.583337,-9.58333 0,-5.28426 4.299085,-9.58334 9.583337,-9.58334 z m 0,-1.91667 c -6.350878,0 -11.500005,5.14913 -11.500005,11.50001 0,6.35087 5.149127,11.5 11.500005,11.5 6.350882,0 11.500012,-5.14913 11.500012,-11.5 0,-6.35088 -5.14913,-11.50001 -11.500012,-11.50001 z m 0,12.02709 -5.742336,-4.37959 H 105.3985 Z m 0,1.23433 -5.750002,-4.43612 v 6.48887 h 11.500014 v -6.48887 z"
       id="path1-3"
       style="stroke-width:0.958334" /><rect
       style="fill:none;fill-opacity:1;stroke:none;stroke-width:0.5;stroke-linejoin:round"
       id="rect7"
       width="35"
       height="35"
       x="82.15712"
       y="114.78851" /></g></svg>
