<?xml version="1.0" encoding="UTF-8" standalone="no"?>
<svg
   width="34.999996"
   height="35"
   viewBox="0 0 34.999996 35"
   version="1.1"
   id="svg1"
   sodipodi:docname="iconmonstr-linkedin-1.svg"
   xml:space="preserve"
   xmlns:inkscape="http://www.inkscape.org/namespaces/inkscape"
   xmlns:sodipodi="http://sodipodi.sourceforge.net/DTD/sodipodi-0.dtd"
   xmlns="http://www.w3.org/2000/svg"
   xmlns:svg="http://www.w3.org/2000/svg"><defs
     id="defs1" /><sodipodi:namedview
     id="namedview1"
     pagecolor="#ffffff"
     bordercolor="#000000"
     borderopacity="0.25"
     inkscape:showpageshadow="2"
     inkscape:pageopacity="0.0"
     inkscape:pagecheckerboard="0"
     inkscape:deskcolor="#d1d1d1"
     showguides="true"><sodipodi:guide
       position="-108.24641,-5.0000068"
       orientation="0,-1"
       id="guide2"
       inkscape:locked="false" /><sodipodi:guide
       position="-127.89305,53.614335"
       orientation="0,-1"
       id="guide3"
       inkscape:locked="false" /></sodipodi:namedview><g
     inkscape:groupmode="layer"
     id="layer2"
     inkscape:label="Whatsapp"
     transform="translate(-38.017902,-114.78851)"><rect
       style="fill:none;fill-opacity:1;stroke:none;stroke-width:0.5;stroke-linejoin:round"
       id="rect7"
       width="35"
       height="35"
       x="38.017902"
       y="114.78851" /><path
       d="m 44.072522,143.78852 1.616709,-5.90621 c -0.997626,-1.72883 -1.521834,-3.68863 -1.520876,-5.69825 0.0028,-6.28284 5.115586,-11.39555 11.397464,-11.39555 3.048461,9.6e-4 5.910045,1.18832 8.062463,3.34267 2.151459,2.15433 3.33596,5.01784 3.335001,8.06341 -0.0029,6.2838 -5.115586,11.39652 -11.397464,11.39652 -1.907084,-9.7e-4 -3.786377,-0.47917 -5.451003,-1.38769 z m 6.322128,-3.64837 c 1.606167,0.95353 3.139501,1.5247 5.167336,1.52566 5.221002,0 9.474087,-4.24925 9.476963,-9.47312 0.002,-5.23444 -4.231044,-9.47793 -9.469296,-9.47985 -5.224836,0 -9.475047,4.24926 -9.476964,9.47217 -9.57e-4,2.13229 0.623876,3.72888 1.673251,5.39926 l -0.957375,3.49601 z m 10.912547,-5.23634 c -0.07092,-0.11884 -0.260667,-0.18974 -0.54625,-0.33254 -0.284625,-0.14279 -1.684751,-0.83184 -1.946376,-0.92672 -0.260667,-0.0948 -0.450417,-0.14279 -0.641126,0.14281 -0.189749,0.28462 -0.736,0.92671 -0.901792,1.11645 -0.165791,0.18975 -0.332542,0.2137 -0.617168,0.0709 -0.284625,-0.1428 -1.202708,-0.44274 -2.290418,-1.41355 -0.846207,-0.75515 -1.418333,-1.68761 -1.584125,-1.9732 -0.165791,-0.28462 -0.01725,-0.43891 0.124584,-0.58075 0.128417,-0.12746 0.284626,-0.33255 0.427417,-0.49929 0.144708,-0.16483 0.191667,-0.28366 0.287499,-0.47438 0.09488,-0.18974 0.04791,-0.3565 -0.02396,-0.49928 -0.07186,-0.14184 -0.641125,-1.54388 -0.877834,-2.1141 -0.231917,-0.55486 -0.466709,-0.48012 -0.641126,-0.48874 l -0.54625,-0.009 c -0.18975,0 -0.498333,0.0709 -0.759,0.35651 -0.260666,0.28558 -0.996667,0.97366 -0.996667,2.3757 0,1.40204 1.020626,2.75616 1.162459,2.94593 0.142792,0.18974 2.00771,3.06666 4.864502,4.30003 0.679458,0.29325 1.210376,0.46863 1.623418,0.59992 0.682333,0.21658 1.303334,0.18591 1.794001,0.11309 0.547208,-0.0815 1.684751,-0.68905 1.922418,-1.35414 0.237666,-0.66604 0.237666,-1.23624 0.165791,-1.35508 z"
       id="path1-40"
       style="stroke-width:0.958334" /></g></svg>
