<?xml version="1.0" encoding="UTF-8" standalone="no"?>
<!-- Created with Inkscape (http://www.inkscape.org/) -->

<svg
   width="50mm"
   height="40mm"
   viewBox="0 0 50 40"
   version="1.1"
   id="svg1"
   xml:space="preserve"
   xmlns="http://www.w3.org/2000/svg"
   xmlns:svg="http://www.w3.org/2000/svg"><defs
     id="defs1" /><g
     id="g156"
     style="display:inline"
     transform="translate(-407.72335,-141.95381)"><g
       id="g35"
       transform="matrix(0.06777989,0,0,0.07592735,707.0741,287.15564)"
       style="display:inline;fill:#000000"><path
         id="rect82"
         style="display:inline;fill:#00ff00;stroke-width:23.5785;stroke-linejoin:round"
         d="m -4416.5128,-1895.0803 v 509.5212 h 737.6819 v -509.5212 z m 368.9829,126.0017 c 20.0959,0 38.0261,3.0985 53.8025,9.302 15.9642,6.0357 29.3942,14.6693 40.2873,25.9024 10.8933,11.2333 19.1648,24.8144 24.7993,40.742 5.8222,15.76 8.7305,33.4439 8.7305,53.06 0,19.6162 -2.9083,37.3116 -8.7305,53.0716 -5.6345,15.7598 -13.906,29.2555 -24.7993,40.4886 -10.8931,11.2331 -24.3231,19.8667 -40.2873,25.9026 -15.7764,6.0357 -33.7066,9.0486 -53.8025,9.0486 -20.096,0 -38.1349,-3.0129 -54.0991,-9.0486 -15.7764,-6.0359 -29.1935,-14.6695 -40.2746,-25.9026 -10.8927,-11.2331 -19.2605,-24.7288 -25.0827,-40.4886 -5.6345,-15.76 -8.4471,-33.4554 -8.4471,-53.0716 0,-19.6161 2.8126,-37.3 8.4471,-53.06 5.8222,-15.9276 14.19,-29.5087 25.0827,-40.742 11.0811,-11.2331 24.4982,-19.8667 40.2746,-25.9024 15.9642,-6.2035 34.0031,-9.302 54.0991,-9.302 z m 0,18.8572 c -16.7154,0 -31.3664,2.5964 -43.9499,7.7938 -12.3956,5.1974 -22.8214,12.6554 -31.273,22.3798 -8.2637,9.5565 -14.5601,21.129 -18.8798,34.7094 -4.1319,13.5804 -6.1901,28.668 -6.1901,45.2662 0,16.7659 2.0582,31.9391 6.1901,45.5195 4.3197,13.4127 10.6161,24.8996 18.8798,34.4562 8.4516,9.5566 18.8774,16.9405 31.273,22.1381 12.5835,5.0298 27.2345,7.5405 43.9499,7.5405 16.7153,0 31.2705,-2.5107 43.6662,-7.5405 12.5834,-5.1976 23.0091,-12.5815 31.273,-22.1381 8.4515,-9.5566 14.735,-21.0435 18.8669,-34.4562 4.132,-13.5804 6.203,-28.7536 6.203,-45.5195 0,-16.5982 -2.071,-31.6858 -6.203,-45.2662 -4.1319,-13.5804 -10.4154,-25.1529 -18.8669,-34.7094 -8.2639,-9.7244 -18.6896,-17.1824 -31.273,-22.3798 -12.3957,-5.1974 -26.9509,-7.7938 -43.6662,-7.7938 z m -51.3007,57.2389 c 2.8228,0 5.578,0.017 8.202,0.034 13.998,6.3492 24.1607,11.3473 23.9479,11.8231 -0.2124,0.4755 -10.6541,-3.7392 -24.3863,-9.7854 -2.6058,0.022 -5.3312,0.032 -8.1247,0.034 -18.9772,0.022 -34.4454,-0.4484 -34.4454,-1.0592 0,-0.6107 15.548,-1.0689 34.8065,-1.0476 z m -111.0352,0.034 c 19.8118,0 35.8898,0.3743 35.8898,0.8403 0,0.4662 -16.078,0.852 -35.8898,0.852 -19.8124,0 -35.8899,-0.3858 -35.8899,-0.852 0,-0.466 16.0775,-0.8403 35.8899,-0.8403 z m 151.6451,11.8691 a 8.4624613,7.554389 0 0 1 8.4597,7.5521 8.4624613,7.554389 0 0 1 -8.4597,7.552 8.4624613,7.554389 0 0 1 -8.46,-7.552 8.4624613,7.554389 0 0 1 8.46,-7.5521 z m 0,2.5097 a 5.641641,5.0362596 0 0 0 -5.6357,5.0424 5.641641,5.0362596 0 0 0 5.6357,5.0308 5.641641,5.0362596 0 0 0 5.6485,-5.0308 5.641641,5.0362596 0 0 0 -5.6485,-5.0424 z m 21.717,64.5493 a 8.4624613,7.554389 0 0 1 8.4598,7.5521 8.4624613,7.554389 0 0 1 -8.4598,7.552 8.4624613,7.554389 0 0 1 -8.4599,-7.552 8.4624613,7.554389 0 0 1 8.4599,-7.5521 z m 0,2.5211 a 5.641641,5.0362596 0 0 0 -5.6356,5.031 5.641641,5.0362596 0 0 0 5.6356,5.0423 5.641641,5.0362596 0 0 0 5.6484,-5.0423 5.641641,5.0362596 0 0 0 -5.6484,-5.031 z m 8.5114,12.5945 c 0.8188,-0.179 11.0316,3.9626 24.3349,9.82 2.6056,-0.022 5.3311,-0.032 8.1245,-0.034 18.9774,-0.022 34.4583,0.4369 34.4583,1.0477 0,0.6106 -15.5607,1.0803 -34.8194,1.0592 -2.8226,0 -5.565,-0.017 -8.1889,-0.035 -13.998,-6.3492 -24.1736,-11.3472 -23.961,-11.8231 0,-0.017 0.025,-0.029 0.052,-0.034 z m 142.5146,9.958 c 19.8126,0 35.8898,0.3743 35.8898,0.8405 0,0.466 -16.0772,0.8518 -35.8898,0.8518 -19.8123,0 -35.8898,-0.3858 -35.8898,-0.8518 0,-0.4662 16.0775,-0.8405 35.8898,-0.8405 z" /></g></g></svg>
