<?xml version="1.0" encoding="UTF-8" standalone="no"?>
<!-- Created with Inkscape (http://www.inkscape.org/) -->

<svg
   width="3.5779469mm"
   height="0.82599932mm"
   viewBox="0 0 3.5779469 0.82599932"
   version="1.1"
   id="svg1"
   xml:space="preserve"
   xmlns="http://www.w3.org/2000/svg"
   xmlns:svg="http://www.w3.org/2000/svg"><defs
     id="defs1" /><g
     id="g156"
     style="display:inline"
     transform="translate(-647.92624,-357.64406)"><g
       id="g53"
       transform="matrix(0.10940644,0,0,0.12255761,638.89052,326.29308)"
       style="display:inline;fill:#000000"><path
         style="fill:#000000;stroke:none;stroke-width:11.7139;stroke-linejoin:round"
         d="m 78.342948,253.03899 c 0,-0.22366 5.697378,-0.39308 12.751066,-0.3853 1.033826,0.001 2.038873,0.006 2.999926,0.014 0,0 10e-7,0 10e-7,0 5.126942,2.32546 8.852869,4.15471 8.774969,4.329 -0.0778,0.17416 -3.903756,-1.37182 -8.933393,-3.58634 0,0 -10e-7,0 -10e-7,0 -0.954342,0.008 -1.950299,0.0128 -2.973416,0.014 -6.950672,0.008 -12.619152,-0.16161 -12.619152,-0.3853 z"
         id="path52"
         transform="matrix(-1,0,0,-1.0004411,185.45853,512.92944)" /><path
         id="path53"
         style="fill:#000000;stroke:none;stroke-width:14.7867;stroke-linejoin:round"
         d="m 112.19228,257.01195 a 3.0994763,2.7668841 0 0 0 -3.09947,2.76688 3.0994763,2.7668841 0 0 0 3.09947,2.76689 3.0994763,2.7668841 0 0 0 3.09948,-2.76689 3.0994763,2.7668841 0 0 0 -3.09948,-2.76688 z m 0,0.92229 a 2.0663176,1.8445895 0 0 1 2.06632,1.84459 2.0663176,1.8445895 0 0 1 -2.06632,1.84459 2.0663176,1.8445895 0 0 1 -2.06631,-1.84459 2.0663176,1.8445895 0 0 1 2.06631,-1.84459 z" /></g></g></svg>
